<svg xmlns="http://www.w3.org/2000/svg" version="1.0" viewBox="0 0 1080 779"><path d="M171.6 93.9c-.8 1.2-.8 99 0 314.3l.7 193.8-5.9.1c-20.1.1-22.7.4-23.8 2.2-2 3.2 1 3.8 15.7 3.3l13.7-.5v10.7c.1 8 .4 11.2 1.6 12.7 1.5 2 1.5 2 3 .1 1-1.4 1.4-5 1.4-12.8V607l15.3-.2c8.3-.1 18.6-.2 22.7-.3 4.1 0 35.4-.5 69.5-.9l61.9-.9-4.4 5.2c-2.5 2.9-5.4 6.5-6.5 8-1.1 1.4-3.2 4-4.6 5.6-6.6 7.5-16.7 19.3-18.9 22.1-1.4 1.7-7.1 8.5-12.6 15-32.5 38.1-37.4 44.1-37.4 45.6 0 4.4 5.2-.2 16.7-14.7 2.2-2.8 5.6-6.6 7.5-8.6 1.9-2 5-5.6 6.8-8 1.9-2.4 5-6.2 6.9-8.5 2-2.2 5.2-6 7.1-8.4 1.9-2.4 4.9-6 6.6-7.9 1.7-2 4.3-5.3 5.9-7.5 1.6-2.1 4.1-5.1 5.5-6.6 1.4-1.5 7.7-9.1 14-16.8 11.2-13.6 11.6-13.9 16-14.5 2.5-.3 26.7-.6 53.9-.7 27.1 0 49.6-.2 50-.4.3-.2 38.6-.7 85.1-1 46.5-.4 90.4-.9 97.5-1.1 7.2-.2 43.8-.5 81.5-.6 37.7-.1 69.5-.4 70.8-.6 1.4-.3 2.2-1.3 2.2-2.5 0-2-.3-2-71.7-1.4-39.5.4-81.5.9-93.3 1.1-65 1.3-87.9 1.6-177.4 2l-97.9.6 1.8-2.8c4.8-7.3 7.4-8.9 18-10.8 33.5-5.8 96.7-24.7 136.5-40.6 35.6-14.3 59.9-26.8 81.7-42.1l12.3-8.6 38.7-9.5c21.4-5.3 44.7-11 51.8-12.7 7.2-1.7 23.6-5.7 36.5-8.9 32.7-8.1 32.2-8.1 27.8-3.4-1.9 2-2 2.5-.8 3.3.8.5 1.7 1 2 .9.9 0 9.5-11 9.5-12.1 0-1.6-15.3-6.9-16.1-5.6-.8 1.2-.5 1.4 3.6 3.2 2.3.9 3 1.6 2 1.9-6 1.9-14.1 4-23.5 6.2-6 1.3-12.6 2.9-14.5 3.5-1.9.5-20.1 5-40.5 10-20.3 4.9-39.2 9.6-42 10.4-2.7.8-7.2 1.9-10 2.5-2.7.6-7 1.5-9.5 2l-4.5 1 3.5-3c1.9-1.6 7.1-5.7 11.5-9.2 15.1-11.9 38.8-34.6 52.8-50.7 5-5.8 11-12.5 13.3-15 18.3-20 43.3-57.3 62.2-93 6.1-11.7 14.4-31.7 15.7-38 1.2-5.7 2.2-6.9 3.3-4 .5 1.4 1.5 3.8 2.1 5.3 1.2 2.9 3.1 2.8 3.1-.1 0-.9-1.2-4.2-2.6-7.2-1.4-3-2.3-6.2-2.1-7.2.4-1.4-1.1-2.8-2.9-2.8-.9 0-14.4 12.2-14.4 13 0 1.8 1.6 1.1 5.9-2.6 2.3-2 4.4-3.4 4.6-3.2.8.8-3.5 16.5-6.9 25.2-3.6 9-16.1 33-23.2 44.1-2.4 3.8-6.2 10.1-8.4 14-11.5 20.1-25.6 39.1-48.8 65.5-11.6 13.2-39.4 41.1-45.3 45.5-3.9 2.9-18.6 15-19.9 16.4-.8.9-2.7 2.2-4.1 2.9-1.5.8-3.8 2.5-5.3 3.9-1.4 1.3-5.2 3.1-8.4 4-13.5 3.6-74.8 19.3-81.2 20.7-8.3 1.9-26.9 6.7-32.2 8.2-2.6.8-5.4 1.4-6.3 1.4-1.8 0-44.4 10.2-60.5 14.5-5.2 1.4-12.2 3.2-15.5 4-7.4 1.7-18.4 4.4-34 8.3-6.6 1.7-18.3 4.7-26 6.6-16.7 4.1-28.2 7.1-35 9.1-7.3 2.1-36 9.3-51 12.7-7.1 1.6-18.4 4.2-25 5.8-6.6 1.7-17.6 4.3-24.5 5.9-6.9 1.6-16.9 4.1-22.3 5.5-5.3 1.4-10.4 2.6-11.2 2.6-1.2 0-1.4-6.3-1.4-44.7 0-24.7-.3-64.8-.5-89.3-.3-24.5-.8-117.5-1.2-206.7-.6-131.8-1-162.3-2-162.7-.7-.3-1.6-.1-1.8.3zm423.9 405.3c-1.1.6-3.3 2.3-5 3.8-4.1 3.8-8.9 6.7-26 16-3.3 1.8-6.7 3.8-7.5 4.5-.8.7-3.3 1.9-5.5 2.6-2.2.7-4.7 1.8-5.5 2.4-1.6 1.2-4.5 2.6-15.3 7.4-3.7 1.7-7.2 3.1-7.7 3.1-.6 0-1.8.4-2.8 1-2.8 1.6-13.4 6-14.4 6-.5 0-3.4 1.1-6.4 2.5-3 1.4-6.3 2.5-7.2 2.5-1 0-2.2.4-2.7.9-1 .8-24.6 9-37.5 12.9-3.6 1.1-10.3 3.1-15 4.6-18.9 5.7-64.6 16.2-67.1 15.4-1-.3.9-2.8 10.9-13.8 4.6-5.1 5.2-7 2.4-7-1.1 0-4.4 3.2-8 7.7-13 16.2-10.3 14.7-29.7 17.7-9.3 1.5-18.6 3.1-20.5 3.6-7.9 2.1-33.7 5-53.5 6-11.5.6-22.3 1.3-24 1.6-4 .7-66.1 1.8-65.5 1.1.6-.6 18.8-5.6 24.5-6.7 2.2-.5 8.5-2 14-3.5s11.6-3.1 13.5-3.5c1.9-.5 43.1-10.7 91.5-22.9 119.6-30 222-55.5 239.5-59.7 8-1.9 17.4-4.3 21-5.3 3.6-1 7.6-1.9 9-2 2.4 0 2.4 0 .5 1.1zm-237.7 92.6c-5.2 7.1-6.4 8.2-9.2 8.7-1.7.2-17.7.6-35.6.8-21.5.2-30 .1-25-.5 15.4-1.8 37-5 52-7.7 19.6-3.6 19.5-3.6 17.8-1.3z"/><path d="M363.3 328.8c-3.4.5-7.3 5.8-7.3 9.9 0 4.9 4.5 9.3 9.5 9.3 8.2 0 12.7-10.5 7-16.3-2.7-2.6-5.4-3.5-9.2-2.9zm5 2.4c3.3 1.7 4.6 3.9 4.7 7.5 0 4.4-3 7.3-7.4 7.3-3.8 0-6.3-1.9-7.2-5.6-.8-3.2 1.2-7.9 3.9-9.2 2.9-1.4 3.4-1.4 6 0zM242 330.2c.1 2.5 5.8 17.2 6.8 17.6.6.2 2.1-2.9 3.3-6.7 1.3-3.9 2.6-7.1 2.9-7.1.3 0 1.6 3.2 2.9 7.1 1.3 4 2.7 6.9 3.4 6.6 1.1-.3 6.7-14.9 6.7-17.5 0-3.1-2 .3-4 6.9-1.2 4-2.5 6.8-2.9 6.3-.5-.5-1.8-3.9-3.1-7.7-1.2-3.7-2.5-6.7-2.9-6.7-.4 0-1.8 3-3.1 6.7-1.2 3.8-2.6 7.1-3 7.6-.3.4-1.7-2.6-3-6.8-1.3-4.1-2.7-7.5-3.2-7.5-.4 0-.8.6-.8 1.2zM273 338.4c0 5.7.4 9.6 1 9.6s1-2 1-4.5V339h11v4.5c0 2.5.5 4.5 1 4.5.6 0 1-3.8 1-9.5s-.4-9.5-1-9.5c-.5 0-1 1.8-1 4v4h-11v-3.4c0-1.9-.4-3.8-1-4.1-.6-.4-1 2.8-1 8.9zM296.9 337.5c-2.2 4.7-3.8 9.1-3.6 9.8.2.7 1 0 1.7-1.6 1.2-2.4 1.8-2.7 6.7-2.7 4.7 0 5.5.3 6.5 2.5s2.8 3.5 2.8 2c0-1.6-8.1-18-9-18.3-.6-.2-2.9 3.5-5.1 8.3zm7.2-1 1.7 4.5h-3.9c-2.2 0-3.9-.4-3.9-1 0-1.4 3.3-8 3.9-8 .4 0 1.3 2 2.2 4.5zM312 330c0 .5 1.4 1 3 1h3v8.5c0 5 .4 8.5 1 8.5s1-3.5 1-8.5V331h3c1.7 0 3-.5 3-1 0-.6-3-1-7-1s-7 .4-7 1zM338 329.8c0 .4 1.6 3.1 3.5 5.9 2.4 3.5 3.5 6.4 3.5 8.8 0 1.9.5 3.5 1 3.5.6 0 1-1.9 1-4.1 0-3.1.8-5.3 3.5-8.9 3.7-5 4.1-6 2.6-6-.5 0-2.2 2-3.8 4.5-1.5 2.5-3 4.5-3.3 4.5-.3 0-1.8-2-3.5-4.5-2.8-4.1-4.5-5.6-4.5-3.7zM380 336.5c0 9 1.7 11.5 7.8 11.5 5.6 0 7-2.1 7.3-10.8.3-9.4-.7-10.3-1.3-1.2-.6 8.1-1.8 10-6.2 10-4.7 0-5.6-1.5-5.6-9.7 0-4.2-.4-7.3-1-7.3s-1 3.2-1 7.5zM408 330c0 .5 1.4 1 3 1h3v8.5c0 5 .4 8.5 1 8.5s1-3.5 1-8.5V331h3c1.7 0 3-.5 3-1 0-.6-3-1-7-1s-7 .4-7 1zM427 338.5c0 5.7.4 9.5 1 9.5s1-2 1-4.5V339h11v4.5c0 2.5.5 4.5 1 4.5.6 0 1-3.8 1-9.5s-.4-9.5-1-9.5c-.5 0-1 1.8-1 4v4h-11v-4c0-2.2-.4-4-1-4s-1 3.8-1 9.5zM448 338.6c0 6.1.4 9.3 1 8.9.6-.3 1-4.6 1-9.6 0-5.3-.4-8.9-1-8.9s-1 3.9-1 9.6zM455.4 330.3c-.3.8-.4 4.9-.2 9.3.3 9 2.2 10.1 2.5 1.4.1-3 .2-6.1.2-6.8.1-.7 2.8 2.1 6.1 6.3 3.4 4.1 6.5 7.3 6.9 7 1.1-.6 1-17.4-.1-18.1-.4-.3-.8 2.7-.8 6.5 0 3.9-.3 7.1-.7 7.1-.9 0-5.5-5.5-9.2-10.8-2.4-3.4-3.8-4-4.7-1.9zM477 338.5c0 5.7.4 9.5 1 9.5s1-1.1 1-2.4c0-1.3.9-3.4 2-4.7 1.8-2.1 2.1-2.2 3.2-.8.7.8 2.5 3.1 4 4.9 1.5 1.9 3 3.1 3.4 2.8.3-.4-.7-2.4-2.3-4.5-4.8-6.2-4.8-6.2-.7-10.4 2.1-2.1 3.4-3.9 2.8-3.9-.5 0-3.2 2.2-5.9 5-2.7 2.7-5.3 5-5.7 5-.4 0-.8-2.3-.8-5 0-2.8-.4-5-1-5s-1 3.8-1 9.5zM66.9 336.1c-5.6 2.1-3.8 7.7 3.1 9.8 4.5 1.3 5.9 3.3 3.9 5.7-1.3 1.6-3.4 1.5-8.9-.2-2.2-.7-2.4-.6-1.1.9 3.5 4.4 13.1 2.4 13.1-2.7 0-2.8-1.5-4.2-5.5-5.2-3.9-.9-5.5-2.2-5.5-4.5 0-2.4 4.1-3.5 7-1.9 2.3 1.2 4 .6 2.4-.9-1.5-1.6-5.7-2-8.5-1zM136.8 336.2c-2.6.9-3.3 2.3-2.8 5.8.3 1.9 1.6 2.7 6.3 4.1 4.3 1.1 5.6 3.1 3.6 5.5-1.3 1.5-3.2 1.5-8.9-.1-2.4-.7-2.4-.7-.7 1.1 2.4 2.6 9.4 2.5 11.3-.1 2.8-3.8.8-6.8-5.5-8.5-4.4-1.2-5.7-3.2-3.5-5.5 1.8-1.7 3.8-1.9 6.4-.5 1.1.6 2.1.6 2.4.1.4-.7-5.1-3.5-5.8-3-.1 0-1.3.5-2.8 1.1zM26 345c0 5.3.4 9 1 9s1-1.6 1-3.5c0-3.2.2-3.5 2.9-3.5 2.3 0 3.4.8 5 3.4 1.2 1.9 2.8 3.7 3.6 4 2.1.8 1.9-.2-1-4l-2.5-3.2 2.5-1.6c2.9-1.9 3.3-5.7.9-8-1-1.1-3.4-1.6-7.5-1.6H26v9zm11.3-6.6c3.9 3 1.2 6.6-5 6.6H28v-4c0-4 0-4 3.8-4 2 0 4.5.7 5.5 1.4zM46.2 345.2l.3 9.3 5.9.3c3.2.2 6.4-.2 6.9-.7.8-.8-.8-1.1-5.1-1.1H48v-7h5c2.8 0 5-.5 5-1 0-.6-2.2-1-5-1h-5v-6.9l5.8-.4 5.7-.3-6.8-.2-6.8-.2.3 9.2zM81.2 343.6c.3 6.5.7 7.9 2.7 9.5 3.2 2.7 7.7 2.4 10.6-.6 2.2-2.1 2.5-3.3 2.5-9.5 0-4-.4-7-1-7s-1 2.9-1 6.8c0 7.7-1.6 10.2-6.3 10.2-3.9 0-5.7-3.4-5.7-10.7 0-4-.4-6.3-1.1-6.3-.8 0-1 2.5-.7 7.6zM102 345c0 4.9.1 9 .3 9.1 3.9.8 11.6.8 12.1 0 .5-.7-1.1-1.1-4.8-1.1H104v-8.5c0-5-.4-8.5-1-8.5s-1 3.7-1 9zM118 336.9l3.5.6.3 8.8c.4 11.2 2.2 10.6 2.2-.8v-8.4l3.3-.4c1.7-.2-.4-.4-4.8-.4-5.1 0-6.7.2-4.5.6zM249.6 364.1c-2.3 3.3-.6 6.1 4.9 8.1 5.8 2.1 6.2 2.5 4.9 4.6-1.3 2-6.2 2.8-7.7 1.3-1.3-1.3-3.7-1.5-3.7-.3s4.6 3.2 7.4 3.2c3.8 0 7-3.2 6.3-6.3-.6-2-1.8-2.9-5.8-4.2-4.2-1.4-5-2.1-4.7-3.8.3-1.9.9-2.2 5.1-2.1 4.7 0 6.1-.8 3.1-2-3.5-1.3-8.3-.6-9.8 1.5zM266.8 362.6c-1.1 1.1-1 17.2.1 17.9.6.3 1.1-1.4 1.3-3.7l.3-4.3h11l.3 4.3c.2 2.3.7 4 1.3 3.7 1.2-.8 1.2-18.5-.1-18.5-.5 0-1 1.8-1 4v4h-11.9l-.3-4.1c-.2-2.2-.6-3.7-1-3.3zM289.7 364c-4.9 3.9-4.1 13.1 1.2 16 3.5 1.8 8.6 1.2 11.5-1.5 3.6-3.4 3.7-10.5.1-14-3.1-3.2-9.1-3.4-12.8-.5zm11.8 2c2.8 2.8 2.6 8.7-.4 11.1-8 6.5-17.5-5.1-9.7-11.8 3.3-2.8 6.7-2.5 10.1.7zM310.7 362.8c-.5.7-.5 4.2-.1 7.9.8 7.7 2.7 10.3 7.8 10.3 5.4 0 7.6-3.6 7.6-12.1 0-3.9-.4-6.9-1-6.9s-1 2.9-1 6.8c0 7.7-1.6 10.2-6.2 10.2-3.8 0-5.1-2.4-5.7-10.3-.4-4.4-.9-6.7-1.4-5.9zM331.2 371.2l.3 9.3 6.3.3c3.8.2 6.2-.1 6.2-.8 0-.6-2.3-1-5.5-1H333v-8.5c0-5.2-.4-8.5-1-8.5-.7 0-1 3.3-.8 9.2zM348.2 371.2l.3 9.3 3 .3c10.9 1.3 17.6-8.8 10.6-15.9-2.6-2.5-3.7-2.9-8.6-2.9h-5.6l.3 9.2zm12.5-5c5.1 4.7 1.8 11.7-6 12.5l-4.7.6V364h4.2c2.9 0 4.9.7 6.5 2.2zM378 371.5c0 5.7.4 9.5 1 9.5s1-2 1-4.5V372h11v4.5c0 2.5.5 4.5 1 4.5.6 0 1-3.8 1-9.5s-.4-9.5-1-9.5c-.5 0-1 1.8-1 4v4h-11v-4c0-2.2-.4-4-1-4s-1 3.8-1 9.5zM404.2 364.7c-.6 1.6-2.4 5.6-4.1 9-1.6 3.4-2.6 6.5-2.1 6.8.5.3 1.6-.7 2.4-2.2 1.3-2.5 1.9-2.8 6.3-2.7 4.2.1 5 .4 6.1 2.7 1.1 2.3 3.2 3.7 3.2 2.2 0-1.9-8.6-18.5-9.5-18.5-.7 0-1.8 1.2-2.3 2.7zm4.4 3.8c2 4.9 1.8 5.5-2.1 5.5-1.9 0-3.5-.5-3.5-1 0-1.6 2.8-8 3.5-8 .3 0 1.3 1.6 2.1 3.5zM420 371.5c0 5.7.4 9.5 1 9.5s1-1.6 1-3.5c0-3.4.1-3.5 3.8-3.5 4.9 0 8.2-2.3 8.2-5.9 0-4.2-2.8-6.1-8.8-6.1H420v9.5zm10.4-6.9c.9.4 1.6 1.8 1.6 3.4 0 3.1-1.5 4-6.6 4-3.3 0-3.4-.1-3.4-4s.1-4 3.4-4c1.9 0 4.1.3 5 .6zM438.5 363c-.8 1.3-.3 17 .6 17.6.9.5 2.1-2.9 1.7-4.7-.2-1 1-1.5 3.9-1.7 7.1-.5 10.4-7.1 5.5-11-1.9-1.4-10.8-1.6-11.7-.2zm11.5 2.9c1.3 2.5 1.3 2.7-.6 4.5-.9.9-3.2 1.6-5.4 1.6-3.9 0-3.9 0-3.8-4v-4h4.4c3.3 0 4.6.5 5.4 1.9zM457 371.5v9.5h6.4c3.6 0 6.8-.5 7.1-1 .4-.6-1.7-1-5.4-1H459v-7h5c2.8 0 5-.5 5-1 0-.6-2.2-1-5-1-4.9 0-5-.1-5-3 0-3 .1-3 5.5-3 3 0 5.5-.5 5.5-1 0-.6-2.8-1-6.5-1H457v9.5zM475 370.9c0 5 .5 9.3 1 9.6.6.4 1-2.3 1-7.2l.1-7.8 3.7 4.4c2 2.4 5.2 6 6.9 8l3.3 3.6v-10c0-11-1.7-12.3-2.2-1.7l-.3 6.3-5.8-7c-3.2-3.9-6.2-7.1-6.8-7.1-.5 0-.9 4-.9 8.9zM403 390.8c0 1.1 3.6 8.4 8 16.3s8 14.8 8 15.2c0 .5.8 2.1 1.8 3.5 1.1 1.5 4.5 7.6 7.7 13.7 3.2 6 7.1 13.2 8.7 15.8 1.5 2.6 2.8 5 2.8 5.3 0 .3 3.2 6.2 7 13 3.9 6.9 7 12.8 7 13 0 .2 1.2 2.3 2.6 4.5 1.4 2.3 2.3 4.3 2 4.6-.2.3-2-.1-4-.8-3.9-1.4-5.5-.7-3.7 1.5 1.1 1.3 9.7 4.6 11.9 4.6.5 0 1.7-3 2.6-6.8 1.9-7.8 1.9-8.2.6-8.2-.5 0-1.2 1.7-1.6 3.7-1.2 7-1.9 7-5.6.2-1.9-3.5-13.8-25.5-26.5-48.9s-24.1-44.6-25.4-47.3c-2.4-4.9-3.9-6-3.9-2.9zM524.3 554.2c-2.9 2.3-5.3 4.7-5.3 5.4 0 1.4 9.6 9.4 11.3 9.4.6 0-.4-1.6-2.3-3.5-1.8-1.9-3.2-3.6-2.9-3.8.4-.4 17.5.7 113.7 7.4 8.5.6 15.6.8 15.9.5 1.7-1.7-2.9-2.4-21.9-3.5-11.7-.6-26.9-1.6-33.8-2.1-6.9-.6-23.1-1.7-36-2.5-30.9-2-38-2.6-38-3.5 0-.4 1.8-2 4-3.5s3.7-3.1 3.4-3.6c-.9-1.6-2.8-.8-8.1 3.3zM789.8 559.6c-3.5 1.9-4.8 4.3-4.8 9.1.1 5.8 3.8 9.3 9.7 9.3 3.2 0 7.2-2.4 6-3.6-.4-.4-1.3-.2-1.9.4-.7.7-2.7 1.2-4.5 1.2-4.4 0-7.3-3.3-7.3-8.1 0-6.4 5.6-9.3 12.3-6.4 1 .4 1.7.3 1.7-.3s-1.7-1.6-3.7-2.1c-4.6-1.3-4.2-1.3-7.5.5zM668 559.9c0 1.9 6.3 18.1 7.1 18.1.4 0 1.1-1 1.5-2.3.3-1.2 1.6-4.7 2.7-7.7l2-5.4 2.6 7.4c1.4 4.1 3 7.5 3.5 7.5.6 0 2.5-4.2 4.3-9.3 1.8-5.2 2.8-9.2 2.2-9-.7.2-2.4 3.7-3.9 7.8l-2.7 7.4-2.5-7.4c-1.3-4.1-2.9-7.5-3.4-7.7-.5-.2-2.1 2.8-3.4 6.7-1.3 3.8-2.7 7-3 7-.3 0-1.6-3.2-2.9-7-1.2-3.9-2.6-7-3.2-7-.5 0-.9.4-.9.9zM699 568.6c0 6.1.4 9.3 1 8.9.6-.3 1-2.4 1-4.6V569h11v3.9c0 2.2.5 4.3 1 4.6.6.4 1-2.8 1-8.9 0-5.7-.4-9.6-1-9.6-.5 0-1 1.8-1 4v4h-11v-4c0-2.2-.4-4-1-4s-1 3.9-1 9.6zM722.9 567.6c-2.2 4.8-3.8 9.1-3.6 9.8.2.6 1.1-.2 1.9-1.9 1.5-2.7 2.1-3 6.8-3.1 4.9-.2 5.2 0 6.2 2.7.9 2.7 2.8 4 2.8 2 0-2.1-8-18.1-9-18.1-.6 0-2.9 3.9-5.1 8.6zm7.3-1.7c.9 2.2 1.3 4.2 1 4.5-.9 1-7.2.7-7.2-.4 0-1.5 3.3-8 4-8 .4 0 1.4 1.8 2.2 3.9zM738.4 559.7c.4.4 1.7.8 2.9.8 2.1 0 2.2.5 2.5 8.7.1 4.9.7 8.8 1.2 8.8s1.1-3.9 1.2-8.7l.3-8.6 3-.4c5.5-.8 3.9-1.3-4-1.3-4.3 0-7.5.3-7.1.7zM768.6 566.2c-1.8 4-3.7 8.4-4.1 9.8-.7 2.2-.6 2.3.9 1.1.9-.7 1.6-2 1.6-2.7 0-1.6-.1-1.6 6.3-1.9 4.5-.2 4.9 0 6.4 2.9.9 1.7 1.8 2.6 2 2 .6-1.7-7.4-18.4-8.7-18.4-.6 0-2.6 3.3-4.4 7.2zm6.8-.2c.9 2.2 1.6 4.3 1.6 4.5 0 .3-1.8.5-4 .5s-4-.4-4-1c0-1.5 3.3-8 4.1-8 .4 0 1.4 1.8 2.3 4zM804.4 559.8c.3.5 1.9.7 3.6.4l3-.4v9.1c0 5.9.4 9 1 8.6.6-.3 1-4.4 1-9v-8.4l3.3-.4c1.7-.2-.3-.5-4.6-.5-4.3-.1-7.6.2-7.3.6zM823.2 566.6c.3 6.5.7 7.9 2.7 9.5 3.2 2.7 7.7 2.4 10.6-.6 2.2-2.1 2.5-3.3 2.5-9.5 0-4-.4-7-1-7s-1 2.8-1 6.3c0 7.5-1.8 10.7-6 10.7s-6-3.2-6-10.7c0-4-.4-6.3-1.1-6.3-.8 0-1 2.5-.7 7.6zM846.3 568c-2.3 4.9-3.8 9.2-3.4 9.5.5.2 1.3-.7 1.9-2 .7-1.4 1.5-2.5 1.9-2.6 8.5-.9 9.4-.7 11.2 2.2 1 1.6 2 2.6 2.3 2.3.9-.9-7.4-18.4-8.7-18.4-.6 0-3 4-5.2 9zm7.3-2.5c2 4.9 1.8 5.5-2.1 5.5-1.9 0-3.5-.5-3.5-1 0-1.6 2.8-8 3.5-8 .3 0 1.3 1.6 2.1 3.5zM865 568.5v9.5h5.9c3.3 0 6.3-.5 6.6-1 .4-.6-1.5-1-4.9-1H867v-8.5c0-5-.4-8.5-1-8.5s-1 3.8-1 9.5zM882.2 568.2l.3 9.3 6.3.3c3.8.2 6.2-.1 6.2-.8 0-.6-2.3-1-5.5-1H884v-8.5c0-5.2-.4-8.5-1-8.5-.7 0-1 3.3-.8 9.2zM897.2 563.7c1.9 2.9 3.5 6.5 3.8 9.1.6 5.2 2.4 5.6 2.7.6 0-2.2 1.4-5.6 3.7-9 2.1-3.1 3.1-5.4 2.4-5.4-.7 0-2.6 2.1-4.2 4.6-1.6 2.5-3.2 4.2-3.5 3.7-.4-.4-1.9-2.5-3.5-4.6-4-5.4-5.3-4.5-1.4 1zM923 567.9c0 9.2 1.6 13.6 2.2 5.9l.3-4.3 5.2-.3 5.2-.3.3 4.3c.6 7.9 2.3 4.6 2.6-5 .2-7.7 0-9.2-1.3-9.2-1.1 0-1.5 1.1-1.5 4v4h-11v-4c0-2.2-.4-4-1-4s-1 3.6-1 8.9zM947.6 566.2c-4.2 9.2-5.2 12.3-3.6 11.3.6-.4 1.5-1.7 2-3 .7-1.9 1.6-2.2 6-2.2 4.7 0 5.2.2 6.7 3.1.9 1.7 1.8 2.6 2 1.9.6-1.7-7.3-18.3-8.7-18.3-.6 0-2.6 3.3-4.4 7.2zm6.7-.7c.9 2 1.7 4 1.7 4.5 0 1.2-6.7 1.3-7.4.2-.6-1 2.5-8.2 3.4-8.2.4 0 1.4 1.6 2.3 3.5zM966 568.6c0 6.1.4 9.3 1 8.9.6-.3 1-1.9 1-3.6 0-2.7.3-2.9 3.8-2.9 2.7 0 4.5-.7 6-2.3 4.7-5 1.3-9.7-7-9.7H966v9.6zm10.9-6.2c1.2 1.2 1.2 2 .3 4.1-1 2.1-1.8 2.5-5.2 2.5h-4v-9.3l3.7.6c2 .4 4.3 1.3 5.2 2.1zM984 568.5c0 5.7.4 9.5 1 9.5s1-1.5 1-3.4c0-3.2.2-3.4 4.5-3.8 5.5-.7 7.5-2.2 7.5-5.8 0-4.1-2.8-6-8.8-6H984v9.5zm10.5-6.5c3.6 3 .9 7-4.7 7H986v-8.9l3.5.3c2 .2 4.2.9 5 1.6zM1002.2 568.2l.3 9.3 6.8.3c4.2.2 6.7-.1 6.7-.8 0-.6-2.5-1-6-1h-6v-7h5c2.8 0 5-.5 5-1 0-.6-2.3-1-5.1-1h-5l.3-3.3c.3-3.2.4-3.2 5.5-3.2 2.9-.1 5.5-.4 5.9-.8.4-.4-2.5-.7-6.5-.7h-7.2l.3 9.2zM1021 568.7c0 11.1 1.7 11.9 2.2 1l.3-6.8 5.9 7.6c3.2 4.1 6.2 7.2 6.7 6.9 1.3-.7 1.1-18.4-.1-18.4-.6 0-1 3-1 7.1 0 8.3-.3 8.3-7.7-1.3-2.4-3.2-4.8-5.8-5.4-5.8-.5 0-.9 4.3-.9 9.7zM1043.2 560.2c-1.6 1.6-1.5 5.3.1 6.6.7.6 3.1 1.7 5.3 2.4 2.8.9 4 1.9 4.2 3.5.4 2.8-3.7 4.1-7.4 2.4-3.5-1.6-4.9-1.4-3.4.4 3.5 4.2 13 2.1 13-2.9 0-2.9-1.4-4.1-5.9-5.3-4.6-1.2-6.2-3.7-3.8-6 1.5-1.5 2.2-1.6 4.9-.5 3.4 1.2 4.4 1 3.3-.7-.9-1.5-8.8-1.4-10.3.1zM434 629c0 .5 1.4 1 3 1h3v8.5c0 5 .4 8.5 1 8.5s1-3.5 1-8.5V630h3.5c1.9 0 3.5-.5 3.5-1 0-.6-3.2-1-7.5-1s-7.5.4-7.5 1zM453 637.5c0 5.7.4 9.5 1 9.5s1-3.8 1-9.5-.4-9.5-1-9.5-1 3.8-1 9.5zM461.7 628.6c-1.1 1.1-.8 18.4.3 18.4.5 0 1-3.3 1.2-7.3l.3-7.2 2.9 4.2c1.6 2.4 3.2 4.3 3.6 4.3.4 0 2-1.9 3.6-4.2l2.9-4.1.3 7.1c.4 10.7 2.2 8.8 2.2-2.3 0-5.2-.4-9.5-.9-9.5s-2.3 2.2-4.1 5c-1.8 2.7-3.5 5-3.9 5-.4 0-1.4-1.2-2.4-2.8-2.9-4.7-5.3-7.3-6-6.6zM485 637.5v9.5h7.1c4.4 0 6.8-.4 6.4-1-.3-.6-3.1-1-6.1-1H487v-3.4c0-3.5 0-3.5 5.3-3.9l5.2-.3-5.2-.2-5.3-.2v-7h5.5c3 0 5.5-.5 5.5-1 0-.6-2.8-1-6.5-1H485v9.5zM158.4 719.6c1.3 5.1 6.9 16.5 8 16.1.9-.3 8.4-16 8.5-18 .1-.5-.4-.7-1-.5-.6.2-2.6 3.9-4.4 8.3l-3.3 8-1.4-3.5c-.8-1.9-2.3-5.6-3.4-8.2-2-5.1-4.1-6.6-3-2.2zM180.6 723.2c-1.5 3.5-3.4 7.8-4.2 9.5-.9 2-1 3.3-.4 3.3s1.6-1.1 2.2-2.5c1-2.2 1.7-2.5 6.5-2.5s5.4.3 6.3 2.5c.5 1.4 1.4 2.5 2 2.5.6 0 .4-1.4-.5-3.7-4.4-10.6-6.9-15.3-8-15.3-.6 0-2.4 2.8-3.9 6.2zm6.5 1.8 1.8 4h-4.5c-4.1 0-4.4-.2-3.4-1.9.5-1.1 1.5-3.2 2-4.7 1.2-3.1 1.7-2.8 4.1 2.6zM198 726.5v9.5h6.5c3.7 0 6.5-.4 6.5-1s-2.5-1-5.5-1H200v-8.5c0-5-.4-8.5-1-8.5s-1 3.8-1 9.5zM215 726.5v9.5h6.5c3.7 0 6.5-.4 6.5-1s-2.5-1-5.5-1H217v-8.5c0-5-.4-8.5-1-8.5s-1 3.8-1 9.5zM232 726.5v9.5h7c4 0 7-.4 7-1s-2.7-1-6-1h-6v-7h5.1c2.7 0 4.8-.4 4.5-.8-.3-.5-2.6-.8-5.1-.7-4.5.1-4.5.1-4.5-3.2V719h5.5c3 0 5.5-.5 5.5-1 0-.6-2.8-1-6.5-1H232v9.5zM249 717.6c0 .4 1.6 2.9 3.5 5.5 2.6 3.7 3.5 5.9 3.5 8.9 0 2.2.5 4 1 4 .6 0 1-1.6 1-3.5 0-2.4 1.2-5.3 3.7-9 4.4-6.7 3.7-8.6-.8-2.1-1.8 2.5-3.5 4.6-3.8 4.6-.3-.1-1.9-2.1-3.4-4.5-2.5-4-4.7-5.8-4.7-3.9zM280.5 719.4c-3.2 3.2-4 6.9-2.5 10.7 1.6 3.9 4.6 5.9 8.8 5.9 4.6 0 7.1-1.6 8.7-5.4 1.8-4.1.4-9.8-2.8-12.1-3.4-2.4-9.4-1.9-12.2.9zm12 1.6c2.6 2.9 2.5 8.5-.2 11.2-4.8 4.7-12.7 1.2-12.7-5.6 0-4.8 2.7-7.6 7.4-7.6 2.4 0 4.3.7 5.5 2zM301.7 717.7c-1.1 1.1-.8 18.3.3 18.3.6 0 1-1.8 1-4v-4h4.9c6.8 0 7.5-1.8.9-2.2-5.2-.3-5.3-.4-5.3-3.3 0-3 .1-3 5.8-3.3 3.1-.2 5.7-.7 5.7-1.2 0-1.1-12.3-1.4-13.3-.3zM268.3 750.5c-1.7.7-3.6 2.2-4.2 3.4-1.5 2.6-1.3 9.2.2 11.2 4.9 6.4 15.8 4.3 17.2-3.4 1.5-8-5.9-14.4-13.2-11.2zm8.3 2.9c5.5 4.7 2.7 13.6-4.3 13.6-8.5 0-10.4-12.3-2.3-15.3 2.7-1 3.9-.7 6.6 1.7zM159 759.6v9.6l5.7-.4c4.6-.4 6.1-1 8-3.2 3.3-3.9 3.1-9-.6-12.7-2.5-2.4-3.7-2.9-8-2.9H159v9.6zm11.7-5.4c5.2 4.8 1.2 12.8-6.3 12.8H161v-15h3.7c2.4 0 4.5.8 6 2.2zM180 759.5c0 5.7.4 9.5 1 9.5s1-3.8 1-9.5-.4-9.5-1-9.5-1 3.8-1 9.5zM189.1 751.4c-.7.8-1.1 2.7-.9 4.3.3 2.4 1 3 5.3 4.4 3.7 1.1 5.1 2.1 5.3 3.7.5 3.3-4.2 4.1-10 1.7-2.8-1.1-2.1 1.1.7 2.3 6 2.7 12.4-.2 11.2-5.1-.6-2-1.8-2.9-5.8-4.2-4.2-1.4-5-2.1-4.7-3.8.3-1.9.9-2.2 5.1-2.1 4.7 0 6.1-.8 3.1-2-2.9-1.1-8.1-.6-9.3.8zM208 758.7c-4.1 8.7-4.9 13.1-1.6 8 1.6-2.4 2.5-2.7 7.1-2.7 4.7 0 5.3.3 6.5 2.7.7 1.6 1.4 2.3 1.7 1.7.5-1.5-7.4-18.4-8.7-18.4-.5 0-2.8 3.9-5 8.7zm6.8-3c.5 1.6 1.3 3.6 1.7 4.5.6 1.6.1 1.8-3.5 1.8-2.3 0-4-.3-3.8-.8.2-.4 1-2.4 1.8-4.5 1.7-4.4 2.5-4.6 3.8-1zM227 759.5c0 5.7.4 9.5 1 9.5s1-1.6 1-3.5c0-3.4.1-3.5 4-3.5 2.7 0 4.7-.7 6-2 4.6-4.6.9-10-7-10h-5v9.5zm11.4-5.3c1.8 2.9-.4 5.3-5.3 5.6l-4.1.3v-8.2l4.1.3c2.7.2 4.6.9 5.3 2zM245 759.5c0 5.7.4 9.5 1 9.5s1-1.6 1-3.5c0-3.5 0-3.5 4.3-3.5 5 0 7.7-2.2 7.7-6.2 0-3.9-2.9-5.8-8.8-5.8H245v9.5zm11.4-5.3c1.8 2.9-.4 5.3-5.3 5.6l-4.1.3v-8.2l4.1.3c2.7.2 4.6.9 5.3 2zM287 759.5c0 5.7.4 9.5 1 9.5s1-3.8 1-9.5-.4-9.5-1-9.5-1 3.8-1 9.5zM295.2 759.7l.2 9.8.5-7.8.6-7.8 3.1 3.3c1.7 1.8 4.5 5.2 6.3 7.6 1.8 2.3 3.7 4 4.2 3.6 1.2-.7 1.2-18.4-.1-18.4-.6 0-1 3-1 7 0 3.8-.3 7-.8 7-.4 0-3.1-3.2-6.1-7-2.9-3.9-5.7-7-6.2-7s-.8 4.4-.7 9.7zM315 751c0 .5 1.4 1 3 1h3v8.5c0 5 .4 8.5 1 8.5s1-3.5 1-8.5V752h3.5c1.9 0 3.5-.5 3.5-1 0-.6-3.2-1-7.5-1s-7.5.4-7.5 1zM334 759.5c0 11.3 1.8 12.9 2.2 1.9l.3-7.6 2.9 4.6c1.6 2.5 3.2 4.6 3.6 4.6.4 0 2-1.9 3.6-4.3l2.9-4.2.3 6.5c.5 10.6 2.2 9.6 2.2-1.3 0-5.6-.4-9.7-1-9.7-.5 0-2.5 2.3-4.4 5.1l-3.4 5.1-3.7-5.1c-2-2.8-4.1-5.1-4.6-5.1s-.9 4.3-.9 9.5zM358 759.5v9.5h6.5c3.7 0 6.5-.4 6.5-1s-2.4-1-5.4-1c-4.4 0-5.6-.3-6.1-1.9-1.1-3.7.4-5.1 5.6-5.1 6.6 0 6.3-1.8-.3-2.2-4.9-.3-5.3-.5-5.3-2.8s.4-2.5 5.8-2.8c7.8-.4 7.2-2.2-.8-2.2H358v9.5zM376 759.5c0 11.4 1.8 12.9 2.2 1.8l.3-7.6 6 7.6c3.3 4.3 6.3 7.7 6.7 7.7.5 0 .8-4.3.8-9.5 0-11.1-1.8-13-2.2-2.3l-.3 7.3-5.8-7.3c-3.2-3.9-6.2-7.2-6.7-7.2-.6 0-1 4.1-1 9.5zM396.5 751c.3.5 1.9 1 3.6 1h2.9v8.6c0 5.4.4 8.3 1 7.9.6-.3 1-4.2 1-8.6V752h3c1.7 0 3-.5 3-1 0-.6-3.2-1-7.6-1-4.7 0-7.3.4-6.9 1z"/></svg>